PathFileType	4	(X/Y/Z)	c:/Users/goper/Files/vsCode/490R/osim_files/C08/C08_Slow_05.trc
DataRate	CameraRate	NumFrames	NumMarkers	Units                	OrigDataRate	OrigDataStartFrame	OrigNumFrames
250.00	250.00	8	36	mm	250.0	1381	2761
                Frame#	Time	LPSIS			LASIS			LTH1			LTH2			LTH3			LTH4			LLFE			LMFE			LSH1			LSH2			LSH3			LSH4			LLMAL			LMMAL			LCAL			LMTP5			LTOE			LMTP1			RPSIS			RASIS			RTH1			RTH2			RTH3			RTH4			RLFE			RMFE			RSH1			RSH2			RSH3			RSH4			RLMAL			RMMAL			RCAL			RMTP1			RTOE			RMTP5		
		X1	Y1	Z1	X2	Y2	Z2	X3	Y3	Z3	X4	Y4	Z4	X5	Y5	Z5	X6	Y6	Z6	X7	Y7	Z7	X8	Y8	Z8	X9	Y9	Z9	X10	Y10	Z10	X11	Y11	Z11	X12	Y12	Z12	X13	Y13	Z13	X14	Y14	Z14	X15	Y15	Z15	X16	Y16	Z16	X17	Y17	Z17	X18	Y18	Z18	X19	Y19	Z19	X20	Y20	Z20	X21	Y21	Z21	X22	Y22	Z22	X23	Y23	Z23	X24	Y24	Z24	X25	Y25	Z25	X26	Y26	Z26	X27	Y27	Z27	X28	Y28	Z28	X29	Y29	Z29	X30	Y30	Z30	X31	Y31	Z31	X32	Y32	Z32	X33	Y33	Z33	X34	Y34	Z34	X35	Y35	Z35	X36	Y36	Z36

1381	5.52000	-106.72343	1050.45142	243.97615	-310.11887	1016.61194	336.52151	-291.90781	744.22913	422.48331	-319.72342	670.08783	413.12912	-344.98422	600.09833	410.54175	-393.49719	701.36743	403.30383	-355.03098	553.46320	403.70770	-388.11267	544.81458	277.63235	-264.65680	481.70425	400.87997	-245.29257	438.16949	403.68378	-317.45596	450.60583	412.68158	-290.20380	413.48013	409.82501	-109.71887	201.38275	348.39481	-145.69437	193.09651	266.79211	-52.47688	215.43748	283.97903	-165.50821	87.07511	388.87894	-234.64510	77.56935	339.46310	-205.76981	73.04135	283.91983	-111.24898	1049.95422	183.60876	-311.30984	1019.41687	100.79393	-251.31255	750.96082	46.32762	-250.71196	673.61395	66.67875	-247.42282	596.34241	71.49454	-322.59808	679.31061	98.99245	-249.73166	524.09705	96.94010	-239.03049	519.45160	219.32378	-190.29613	442.35349	78.23164	-193.35078	397.49768	75.87052	-250.93095	438.62405	92.09484	-245.78857	394.24625	88.12596	-154.92064	103.01405	140.64337	-182.48605	104.95903	229.67570	-93.58286	79.62162	209.39346	-308.52423	42.05681	216.81226	-326.97128	59.85231	164.21953	-274.42050	44.80971	103.02242
1382	5.52400	-110.60318	1050.63171	244.25763	-314.26807	1016.83582	336.29089	-297.66599	744.95831	422.65100	-325.83585	670.93939	413.16379	-351.44730	601.04565	410.22729	-399.15369	702.74420	402.66431	-361.05423	554.48639	403.24942	-393.73465	545.90698	277.15808	-272.00241	480.99136	400.78275	-252.91458	437.34363	403.75708	-325.34708	450.85867	412.56680	-298.69324	413.25687	409.90738	-121.80867	197.68074	349.34479	-158.18878	189.84413	267.98914	-64.03949	210.35391	285.05060	-180.13647	84.74096	390.15067	-249.44102	76.74393	340.68411	-220.04964	71.54051	285.18829	-115.02392	1050.12366	183.89316	-314.98434	1019.29321	100.73985	-253.71231	750.99097	46.38643	-252.92444	673.71527	66.81444	-249.08218	596.43927	71.43158	-325.01007	678.85870	99.04212	-251.04573	524.10052	97.04485	-240.43617	519.41754	219.40398	-191.37471	442.54520	78.33965	-194.24374	397.65097	75.95872	-252.03868	438.59799	92.17675	-246.75644	394.26459	88.17486	-155.09256	103.17860	140.76683	-182.67024	105.06884	229.79317	-93.71349	79.78207	209.49680	-308.59210	42.01697	216.81740	-327.05811	59.76293	164.22766	-274.43365	44.78614	103.02272
1383	5.52800	-114.49816	1050.77930	244.55962	-318.29446	1017.02252	336.14236	-303.43436	745.64062	422.78986	-331.87061	671.73901	413.18094	-357.80997	602.02618	409.88147	-405.43030	703.84210	402.46552	-368.19803	555.54254	403.00705	-399.07639	546.85352	276.73621	-279.31021	480.12943	400.68570	-261.14520	436.59390	403.78464	-333.09656	451.07214	412.47729	-306.94864	413.15198	410.20105	-134.03140	193.95679	350.35022	-170.17738	186.63179	268.81900	-75.90053	205.04871	286.16370	-194.86888	82.41751	391.50073	-265.18527	75.94772	342.11374	-234.49300	70.03548	286.50836	-118.78049	1050.23682	184.17336	-318.45407	1019.04559	100.69550	-256.08936	750.99683	46.45332	-255.02985	673.66864	66.90581	-250.73897	596.48853	71.39057	-326.67212	678.67517	98.97779	-252.36377	524.10999	97.12421	-241.89296	519.43036	219.48470	-192.44969	442.66772	78.41144	-195.23738	397.80878	76.05920	-253.02679	438.54642	92.41431	-247.68011	394.28061	88.21587	-155.23451	103.43892	140.82999	-182.86949	105.17722	229.90427	-93.86475	79.92097	209.61659	-308.66025	41.95057	216.81149	-327.13638	59.65497	164.22462	-274.42337	44.76699	103.01868
1384	5.53200	-118.34264	1050.95227	244.88225	-322.41013	1017.09326	336.07452	-309.12961	746.30670	422.91260	-337.84903	672.52051	413.16052	-364.09616	602.91870	409.57571	-410.77176	704.90912	401.23715	-374.63498	556.41681	402.64505	-404.43625	547.73547	276.24976	-286.53616	478.89319	404.06888	-269.44080	435.22974	403.99039	-340.92072	451.18423	411.73880	-315.50583	412.67343	410.10468	-146.32095	190.17426	351.29691	-181.98456	183.36902	269.89117	-87.80556	199.74104	287.28268	-209.68080	80.12878	392.86581	-280.84122	75.59517	343.90619	-249.12311	68.51237	287.87460	-122.57071	1050.36694	184.49544	-322.03064	1018.82428	100.59630	-258.54996	750.98840	46.54173	-257.06168	673.66205	66.94143	-253.33568	596.02466	71.78365	-327.21442	677.44177	98.62007	-253.72398	524.08337	97.24044	-243.46242	519.34753	219.49881	-193.57256	442.83401	78.56397	-196.20683	397.94629	76.18158	-254.12265	438.53131	92.50761	-248.66426	394.27451	88.29461	-155.46140	103.62914	140.94467	-183.09427	105.28638	229.98343	-93.98664	80.10442	209.75076	-308.73254	41.86933	216.83208	-327.21927	59.51477	164.22035	-274.47543	44.72239	103.03677
1385	5.53600	-122.19582	1051.07654	245.23331	-326.35867	1017.13208	336.05890	-314.74466	746.94025	423.03641	-343.73987	673.22418	413.13171	-370.22809	603.78271	409.21048	-416.36365	705.93292	400.49664	-380.96030	557.34546	402.21597	-409.82468	548.62097	275.74405	-293.50543	478.46646	401.14713	-277.05417	434.19135	403.44122	-348.37885	451.25079	411.64243	-323.76053	412.35571	410.20212	-158.70770	186.35156	352.24005	-194.77754	180.12485	270.91467	-99.78471	194.45779	288.30005	-224.56967	77.97030	394.22043	-296.65427	75.07114	345.63434	-263.92502	66.98315	289.28046	-126.31844	1050.46716	184.84734	-325.68936	1018.61877	100.49178	-261.18161	750.86230	46.68912	-259.11591	673.63348	67.01173	-254.03514	596.61206	71.27855	-330.00476	676.94922	98.84833	-255.06293	524.06104	97.31461	-244.93286	519.33704	219.50714	-194.67708	442.96625	78.63530	-197.12022	398.10583	76.28462	-255.31082	438.56284	92.33214	-249.56879	394.26233	88.37775	-155.67403	103.83531	141.06917	-182.64462	105.56505	230.07265	-94.11998	80.25010	209.84753	-309.07874	41.92274	216.85272	-327.41998	59.40068	164.25812	-274.51541	44.68389	103.04397
1386	5.54000	-126.02995	1051.19385	245.59239	-330.43530	1017.17206	336.03305	-320.35190	747.53979	423.14056	-349.48257	673.90924	413.05801	-376.26093	604.59259	408.87680	-421.80817	706.92761	399.81165	-387.17209	558.13501	401.85291	-415.02551	549.37097	275.26465	-300.50821	477.49316	401.11624	-285.12177	432.96457	404.15497	-355.76669	451.26620	411.52798	-331.70584	412.15817	410.38791	-171.21051	182.51826	353.22522	-207.35002	176.82407	271.93774	-112.13844	188.91298	289.39279	-239.53752	75.82054	395.61026	-311.05377	74.06674	346.33328	-278.88361	65.45979	290.71921	-130.01031	1050.57520	185.21939	-329.07935	1018.31177	100.38419	-263.64948	750.83130	46.76834	-261.23309	673.59277	67.08696	-255.75488	596.59656	71.36496	-331.86472	676.81281	98.63157	-256.41779	524.02106	97.38529	-246.21352	519.48547	219.62894	-195.76675	443.13892	78.76727	-198.11131	398.24759	76.41385	-256.38370	438.55566	92.41555	-250.57684	394.28448	88.42407	-155.89696	104.03110	141.14737	-182.83757	105.68369	230.18697	-94.66232	80.17863	210.14331	-308.49417	41.54833	216.80766	-327.32062	59.25826	164.15767	-274.54028	44.66970	103.04655
1387	5.54400	-129.88075	1051.27014	245.99648	-334.41638	1017.20428	336.05341	-325.82654	748.09058	423.24747	-355.18134	674.57819	412.96750	-382.18326	605.34021	408.51581	-427.21735	707.81262	399.10956	-393.27307	558.90155	401.45096	-420.11810	550.00140	274.78748	-307.15524	476.49655	401.12106	-292.83270	431.77219	404.31140	-363.06198	451.27148	411.47546	-339.78314	411.72031	410.45352	-183.81335	178.69276	354.18436	-220.05211	173.47954	272.95612	-124.50875	183.48457	290.40753	-254.59811	73.74743	397.01376	-326.05652	73.46418	347.66330	-293.98389	63.95425	292.18423	-133.77585	1050.67603	185.63536	-332.69696	1018.00146	100.32088	-266.13159	750.74310	46.81085	-263.34811	673.51416	67.16816	-257.44992	596.62000	71.43200	-334.55994	676.69824	98.70038	-257.78500	524.02222	97.42242	-247.80870	519.43622	219.66191	-196.85463	443.30469	78.87501	-199.04066	398.40164	76.52405	-257.47693	438.51306	92.45037	-251.49803	394.24786	88.49522	-156.11125	104.23328	141.26509	-183.21783	106.21199	230.01027	-94.82593	80.33991	210.27870	-308.55750	41.47250	216.80093	-327.43082	59.16889	164.14233	-274.57141	44.64148	103.05584
1388	5.54800	-133.74283	1051.32800	246.40152	-338.51544	1017.12799	336.08609	-331.21747	748.56653	423.32382	-360.80234	675.13928	412.78448	-388.04639	606.04803	408.15240	-432.44449	708.72986	398.40387	-399.30240	559.61749	401.05371	-425.94843	551.22943	274.45001	-314.02713	475.39575	401.06326	-300.49377	430.48291	404.36362	-370.26624	451.20770	411.33392	-348.02493	411.18332	410.32990	-196.52855	174.90170	355.13043	-232.85657	170.13776	274.00739	-137.01540	178.07791	291.43002	-269.66141	71.76956	398.41589	-340.95883	73.02733	349.15549	-309.21088	62.47850	293.66876	-137.48793	1050.72998	186.07074	-336.20566	1017.75433	100.18525	-268.60388	750.70398	46.92145	-265.40063	673.48431	67.25702	-259.15683	596.61725	71.61418	-337.83734	676.72662	98.31652	-259.16153	524.00262	97.50737	-249.15889	519.61792	219.76988	-197.93581	443.45230	79.01338	-199.98032	398.58090	76.65667	-258.54526	438.55875	92.52119	-252.42012	394.25150	88.56812	-156.30989	104.44717	141.39763	-183.57832	105.94474	230.50801	-94.99228	80.52345	210.43430	-308.61746	41.40354	216.79953	-327.54187	59.06221	164.11661	-274.58881	44.63338	103.05278
